<svg xmlns="http://www.w3.org/2000/svg" xmlns:xlink="http://www.w3.org/1999/xlink" width="375" viewBox="0 0 375 375" height="375" version="1.0"><defs><g id="b"><path d="M 21.4375 0.65625 C 17.226562 0.65625 13.707031 0.0390625 10.875 -1.1875 C 8.050781 -2.414062 5.914062 -4.015625 4.46875 -5.984375 C 3.019531 -7.953125 2.253906 -10.054688 2.171875 -12.296875 C 2.171875 -12.691406 2.300781 -13.019531 2.5625 -13.28125 C 2.820312 -13.539062 3.148438 -13.671875 3.546875 -13.671875 L 10.65625 -13.671875 C 11.226562 -13.671875 11.664062 -13.5625 11.96875 -13.34375 C 12.28125 -13.125 12.566406 -12.84375 12.828125 -12.5 C 13.128906 -11.707031 13.617188 -10.957031 14.296875 -10.25 C 14.984375 -9.550781 15.90625 -8.984375 17.0625 -8.546875 C 18.226562 -8.109375 19.6875 -7.890625 21.4375 -7.890625 C 24.289062 -7.890625 26.425781 -8.347656 27.84375 -9.265625 C 29.269531 -10.191406 29.984375 -11.441406 29.984375 -13.015625 C 29.984375 -14.117188 29.597656 -15.019531 28.828125 -15.71875 C 28.066406 -16.414062 26.863281 -17.050781 25.21875 -17.625 C 23.570312 -18.195312 21.390625 -18.789062 18.671875 -19.40625 C 15.390625 -20.144531 12.597656 -21.070312 10.296875 -22.1875 C 7.992188 -23.3125 6.257812 -24.757812 5.09375 -26.53125 C 3.9375 -28.3125 3.359375 -30.515625 3.359375 -33.140625 C 3.359375 -35.773438 4.078125 -38.109375 5.515625 -40.140625 C 6.960938 -42.179688 9.003906 -43.78125 11.640625 -44.9375 C 14.273438 -46.101562 17.410156 -46.6875 21.046875 -46.6875 C 23.984375 -46.6875 26.578125 -46.289062 28.828125 -45.5 C 31.085938 -44.71875 32.972656 -43.691406 34.484375 -42.421875 C 36.003906 -41.148438 37.15625 -39.789062 37.9375 -38.34375 C 38.726562 -36.894531 39.148438 -35.488281 39.203125 -34.125 C 39.203125 -33.738281 39.078125 -33.398438 38.828125 -33.109375 C 38.585938 -32.828125 38.25 -32.6875 37.8125 -32.6875 L 30.453125 -32.6875 C 30.015625 -32.6875 29.617188 -32.773438 29.265625 -32.953125 C 28.910156 -33.128906 28.601562 -33.4375 28.34375 -33.875 C 28.125 -35.050781 27.367188 -36.054688 26.078125 -36.890625 C 24.785156 -37.722656 23.109375 -38.140625 21.046875 -38.140625 C 18.898438 -38.140625 17.203125 -37.753906 15.953125 -36.984375 C 14.703125 -36.222656 14.078125 -35.03125 14.078125 -33.40625 C 14.078125 -32.351562 14.40625 -31.460938 15.0625 -30.734375 C 15.71875 -30.015625 16.789062 -29.378906 18.28125 -28.828125 C 19.769531 -28.285156 21.785156 -27.707031 24.328125 -27.09375 C 28.148438 -26.300781 31.265625 -25.347656 33.671875 -24.234375 C 36.085938 -23.117188 37.863281 -21.691406 39 -19.953125 C 40.132812 -18.222656 40.703125 -16.046875 40.703125 -13.421875 C 40.703125 -10.484375 39.890625 -7.960938 38.265625 -5.859375 C 36.648438 -3.753906 34.394531 -2.140625 31.5 -1.015625 C 28.601562 0.0976562 25.25 0.65625 21.4375 0.65625 Z M 21.4375 0.65625"/></g><g id="c"><path d="M 16.640625 0 C 16.160156 0 15.765625 -0.148438 15.453125 -0.453125 C 15.148438 -0.765625 15 -1.160156 15 -1.640625 L 15 -36.828125 L 3.03125 -36.828125 C 2.59375 -36.828125 2.21875 -36.976562 1.90625 -37.28125 C 1.601562 -37.59375 1.453125 -37.988281 1.453125 -38.46875 L 1.453125 -44.390625 C 1.453125 -44.867188 1.601562 -45.257812 1.90625 -45.5625 C 2.21875 -45.875 2.59375 -46.03125 3.03125 -46.03125 L 37.484375 -46.03125 C 37.960938 -46.03125 38.351562 -45.875 38.65625 -45.5625 C 38.96875 -45.257812 39.125 -44.867188 39.125 -44.390625 L 39.125 -38.46875 C 39.125 -37.988281 38.96875 -37.59375 38.65625 -37.28125 C 38.351562 -36.976562 37.960938 -36.828125 37.484375 -36.828125 L 25.578125 -36.828125 L 25.578125 -1.640625 C 25.578125 -1.160156 25.421875 -0.765625 25.109375 -0.453125 C 24.804688 -0.148438 24.414062 0 23.9375 0 Z M 16.640625 0"/></g><g id="d"><path d="M 2.171875 0 C 1.773438 0 1.445312 -0.140625 1.1875 -0.421875 C 0.925781 -0.710938 0.796875 -1.03125 0.796875 -1.375 C 0.796875 -1.59375 0.816406 -1.789062 0.859375 -1.96875 L 16.5 -44.265625 C 16.632812 -44.742188 16.898438 -45.15625 17.296875 -45.5 C 17.691406 -45.851562 18.238281 -46.03125 18.9375 -46.03125 L 27.359375 -46.03125 C 28.054688 -46.03125 28.601562 -45.851562 29 -45.5 C 29.394531 -45.15625 29.679688 -44.742188 29.859375 -44.265625 L 45.4375 -1.96875 C 45.53125 -1.789062 45.578125 -1.59375 45.578125 -1.375 C 45.578125 -1.03125 45.429688 -0.710938 45.140625 -0.421875 C 44.859375 -0.140625 44.519531 0 44.125 0 L 37.21875 0 C 36.601562 0 36.140625 -0.148438 35.828125 -0.453125 C 35.523438 -0.765625 35.332031 -1.050781 35.25 -1.3125 L 32.421875 -8.6875 L 13.875 -8.6875 L 11.109375 -1.3125 C 10.984375 -1.050781 10.773438 -0.765625 10.484375 -0.453125 C 10.203125 -0.148438 9.734375 0 9.078125 0 Z M 16.375 -17.171875 L 29.921875 -17.171875 L 23.15625 -36.046875 Z M 16.375 -17.171875"/></g><g id="e"><path d="M 6.4375 0 C 6 0 5.625 -0.148438 5.3125 -0.453125 C 5.007812 -0.765625 4.859375 -1.160156 4.859375 -1.640625 L 4.859375 -44.390625 C 4.859375 -44.867188 5.007812 -45.257812 5.3125 -45.5625 C 5.625 -45.875 6 -46.03125 6.4375 -46.03125 L 23.9375 -46.03125 C 29.414062 -46.03125 33.734375 -44.769531 36.890625 -42.25 C 40.046875 -39.726562 41.625 -36.101562 41.625 -31.375 C 41.625 -28.164062 40.859375 -25.488281 39.328125 -23.34375 C 37.796875 -21.195312 35.734375 -19.597656 33.140625 -18.546875 L 42.484375 -2.109375 C 42.617188 -1.835938 42.6875 -1.59375 42.6875 -1.375 C 42.6875 -1.03125 42.539062 -0.710938 42.25 -0.421875 C 41.96875 -0.140625 41.648438 0 41.296875 0 L 33.9375 0 C 33.144531 0 32.550781 -0.207031 32.15625 -0.625 C 31.757812 -1.039062 31.472656 -1.425781 31.296875 -1.78125 L 23.28125 -16.84375 L 15.328125 -16.84375 L 15.328125 -1.640625 C 15.328125 -1.160156 15.171875 -0.765625 14.859375 -0.453125 C 14.554688 -0.148438 14.160156 0 13.671875 0 Z M 15.328125 -25.1875 L 23.8125 -25.1875 C 26.175781 -25.1875 27.9375 -25.734375 29.09375 -26.828125 C 30.257812 -27.921875 30.84375 -29.457031 30.84375 -31.4375 C 30.84375 -33.40625 30.269531 -34.957031 29.125 -36.09375 C 27.988281 -37.238281 26.21875 -37.8125 23.8125 -37.8125 L 15.328125 -37.8125 Z M 15.328125 -25.1875"/></g><g id="f"><path d="M 23.671875 0.65625 C 19.816406 0.65625 16.441406 0.0078125 13.546875 -1.28125 C 10.648438 -2.570312 8.410156 -4.566406 6.828125 -7.265625 C 5.253906 -9.960938 4.46875 -13.394531 4.46875 -17.5625 L 4.46875 -44.390625 C 4.46875 -44.867188 4.617188 -45.257812 4.921875 -45.5625 C 5.234375 -45.875 5.609375 -46.03125 6.046875 -46.03125 L 13.28125 -46.03125 C 13.769531 -46.03125 14.164062 -45.875 14.46875 -45.5625 C 14.769531 -45.257812 14.921875 -44.867188 14.921875 -44.390625 L 14.921875 -17.625 C 14.921875 -14.425781 15.6875 -12.035156 17.21875 -10.453125 C 18.757812 -8.878906 20.910156 -8.09375 23.671875 -8.09375 C 26.390625 -8.09375 28.515625 -8.878906 30.046875 -10.453125 C 31.585938 -12.035156 32.359375 -14.425781 32.359375 -17.625 L 32.359375 -44.390625 C 32.359375 -44.867188 32.519531 -45.257812 32.84375 -45.5625 C 33.175781 -45.875 33.5625 -46.03125 34 -46.03125 L 41.234375 -46.03125 C 41.671875 -46.03125 42.039062 -45.875 42.34375 -45.5625 C 42.65625 -45.257812 42.8125 -44.867188 42.8125 -44.390625 L 42.8125 -17.5625 C 42.8125 -13.394531 42.03125 -9.960938 40.46875 -7.265625 C 38.914062 -4.566406 36.703125 -2.570312 33.828125 -1.28125 C 30.960938 0.0078125 27.578125 0.65625 23.671875 0.65625 Z M 23.671875 0.65625"/></g><g id="g"><path d="M 6.4375 0 C 6 0 5.625 -0.148438 5.3125 -0.453125 C 5.007812 -0.765625 4.859375 -1.160156 4.859375 -1.640625 L 4.859375 -44.390625 C 4.859375 -44.867188 5.007812 -45.257812 5.3125 -45.5625 C 5.625 -45.875 6 -46.03125 6.4375 -46.03125 L 24.46875 -46.03125 C 28.019531 -46.03125 31.109375 -45.484375 33.734375 -44.390625 C 36.367188 -43.296875 38.410156 -41.640625 39.859375 -39.421875 C 41.304688 -37.210938 42.03125 -34.441406 42.03125 -31.109375 C 42.03125 -27.816406 41.304688 -25.082031 39.859375 -22.90625 C 38.410156 -20.738281 36.367188 -19.128906 33.734375 -18.078125 C 31.109375 -17.023438 28.019531 -16.5 24.46875 -16.5 L 15.65625 -16.5 L 15.65625 -1.640625 C 15.65625 -1.160156 15.5 -0.765625 15.1875 -0.453125 C 14.882812 -0.148438 14.492188 0 14.015625 0 Z M 15.515625 -24.65625 L 24.140625 -24.65625 C 26.367188 -24.65625 28.097656 -25.203125 29.328125 -26.296875 C 30.554688 -27.398438 31.171875 -29.023438 31.171875 -31.171875 C 31.171875 -33.140625 30.609375 -34.738281 29.484375 -35.96875 C 28.367188 -37.195312 26.585938 -37.8125 24.140625 -37.8125 L 15.515625 -37.8125 Z M 15.515625 -24.65625"/></g><g id="h"><path d="M 23.15625 0.65625 C 19.164062 0.65625 15.722656 0 12.828125 -1.3125 C 9.929688 -2.625 7.671875 -4.609375 6.046875 -7.265625 C 4.421875 -9.921875 3.546875 -13.265625 3.421875 -17.296875 C 3.378906 -19.179688 3.359375 -21.054688 3.359375 -22.921875 C 3.359375 -24.785156 3.378906 -26.679688 3.421875 -28.609375 C 3.546875 -32.554688 4.429688 -35.875 6.078125 -38.5625 C 7.722656 -41.257812 10.003906 -43.285156 12.921875 -44.640625 C 15.835938 -46.003906 19.25 -46.6875 23.15625 -46.6875 C 27.007812 -46.6875 30.394531 -46.003906 33.3125 -44.640625 C 36.226562 -43.285156 38.519531 -41.257812 40.1875 -38.5625 C 41.851562 -35.875 42.75 -32.554688 42.875 -28.609375 C 42.96875 -26.679688 43.015625 -24.785156 43.015625 -22.921875 C 43.015625 -21.054688 42.96875 -19.179688 42.875 -17.296875 C 42.75 -13.265625 41.863281 -9.921875 40.21875 -7.265625 C 38.570312 -4.609375 36.300781 -2.625 33.40625 -1.3125 C 30.507812 0 27.09375 0.65625 23.15625 0.65625 Z M 23.15625 -7.890625 C 25.695312 -7.890625 27.785156 -8.65625 29.421875 -10.1875 C 31.066406 -11.726562 31.9375 -14.207031 32.03125 -17.625 C 32.113281 -19.550781 32.15625 -21.359375 32.15625 -23.046875 C 32.15625 -24.734375 32.113281 -26.519531 32.03125 -28.40625 C 31.988281 -30.6875 31.570312 -32.550781 30.78125 -34 C 29.988281 -35.445312 28.945312 -36.5 27.65625 -37.15625 C 26.363281 -37.8125 24.863281 -38.140625 23.15625 -38.140625 C 21.488281 -38.140625 19.992188 -37.8125 18.671875 -37.15625 C 17.359375 -36.5 16.304688 -35.445312 15.515625 -34 C 14.734375 -32.550781 14.296875 -30.6875 14.203125 -28.40625 C 14.160156 -26.519531 14.140625 -24.734375 14.140625 -23.046875 C 14.140625 -21.359375 14.160156 -19.550781 14.203125 -17.625 C 14.335938 -14.207031 15.210938 -11.726562 16.828125 -10.1875 C 18.453125 -8.65625 20.5625 -7.890625 23.15625 -7.890625 Z M 23.15625 -7.890625"/></g><g id="i"><path d="M 6.4375 0 C 6 0 5.625 -0.148438 5.3125 -0.453125 C 5.007812 -0.765625 4.859375 -1.160156 4.859375 -1.640625 L 4.859375 -44.390625 C 4.859375 -44.867188 5.007812 -45.257812 5.3125 -45.5625 C 5.625 -45.875 6 -46.03125 6.4375 -46.03125 L 36.296875 -46.03125 C 36.785156 -46.03125 37.179688 -45.875 37.484375 -45.5625 C 37.796875 -45.257812 37.953125 -44.867188 37.953125 -44.390625 L 37.953125 -39.125 C 37.953125 -38.644531 37.796875 -38.25 37.484375 -37.9375 C 37.179688 -37.632812 36.785156 -37.484375 36.296875 -37.484375 L 15 -37.484375 L 15 -27.234375 L 34.859375 -27.234375 C 35.335938 -27.234375 35.726562 -27.078125 36.03125 -26.765625 C 36.34375 -26.460938 36.5 -26.066406 36.5 -25.578125 L 36.5 -20.71875 C 36.5 -20.28125 36.34375 -19.894531 36.03125 -19.5625 C 35.726562 -19.238281 35.335938 -19.078125 34.859375 -19.078125 L 15 -19.078125 L 15 -8.546875 L 36.828125 -8.546875 C 37.304688 -8.546875 37.695312 -8.390625 38 -8.078125 C 38.3125 -7.773438 38.46875 -7.382812 38.46875 -6.90625 L 38.46875 -1.640625 C 38.46875 -1.160156 38.3125 -0.765625 38 -0.453125 C 37.695312 -0.148438 37.304688 0 36.828125 0 Z M 6.4375 0"/></g><clipPath id="a"><path d="M 101 16.335938 L 275 16.335938 L 275 228.585938 L 101 228.585938 Z M 101 16.335938"/></clipPath></defs><path fill="#FFF" d="M-37.5 -37.5H412.5V412.5H-37.5z"/><path fill="#FFF" d="M-37.5 -37.5H412.5V412.5H-37.5z"/><path d="M-37.5 -37.5H412.5V412.5H-37.5z"/><g clip-path="url(#a)"><path fill="#5271FF" d="M 274.632812 210.117188 L 264.8125 81.03125 L 264.804688 80.929688 C 264.425781 76.671875 262.472656 72.742188 259.308594 69.855469 C 256.140625 66.972656 252.023438 65.386719 247.722656 65.386719 L 232.246094 65.386719 L 232.246094 61.0625 C 232.246094 49.113281 227.5625 37.882812 219.0625 29.429688 C 210.5625 20.984375 199.253906 16.328125 187.226562 16.328125 C 175.214844 16.328125 163.921875 20.96875 155.421875 29.410156 C 146.921875 37.839844 142.230469 49.058594 142.210938 61 L 142.085938 143.425781 L 142.152344 143.425781 C 142.042969 144.742188 141.988281 146.070312 141.988281 147.410156 C 141.988281 160.058594 146.949219 171.953125 155.945312 180.890625 C 164.941406 189.832031 176.914062 194.761719 189.644531 194.761719 C 202.371094 194.761719 214.34375 189.832031 223.339844 180.890625 C 232.34375 171.945312 237.296875 160.058594 237.296875 147.410156 C 237.296875 134.757812 232.335938 122.863281 223.339844 113.925781 C 214.335938 104.980469 202.371094 100.054688 189.644531 100.054688 C 178.050781 100.054688 167.089844 104.140625 158.421875 111.628906 L 158.5 61.027344 C 158.519531 45.3125 171.40625 32.527344 187.222656 32.527344 C 203.0625 32.527344 215.945312 45.335938 215.945312 61.066406 L 215.945312 65.394531 L 180.363281 65.394531 C 175.859375 65.394531 172.207031 69.027344 172.214844 73.503906 C 172.222656 77.96875 175.863281 81.585938 180.363281 81.585938 L 247.714844 81.585938 C 248.152344 81.585938 248.515625 81.910156 248.566406 82.335938 L 258.382812 211.386719 L 258.390625 211.488281 C 258.410156 211.699219 258.347656 211.917969 258.210938 212.085938 C 258.039062 212.296875 257.808594 212.40625 257.542969 212.40625 L 118.324219 212.40625 C 118.109375 212.40625 117.894531 212.332031 117.738281 212.179688 C 117.535156 211.988281 117.445312 211.753906 117.46875 211.488281 L 117.472656 211.441406 L 127.546875 74.082031 C 127.890625 69.390625 124.152344 65.394531 119.421875 65.394531 C 115.148438 65.394531 111.601562 68.671875 111.292969 72.902344 L 101.234375 210.125 C 100.832031 214.855469 102.445312 219.570312 105.675781 223.066406 C 108.917969 226.585938 113.527344 228.597656 118.324219 228.597656 L 257.542969 228.597656 C 262.335938 228.597656 266.945312 226.585938 270.1875 223.066406 C 273.417969 219.5625 275.03125 214.847656 274.632812 210.117188 Z M 189.644531 116.234375 C 206.941406 116.234375 221.007812 130.214844 221.007812 147.402344 C 221.007812 164.589844 206.941406 178.566406 189.644531 178.566406 C 172.347656 178.566406 158.277344 164.589844 158.277344 147.402344 C 158.277344 130.214844 172.347656 116.234375 189.644531 116.234375 Z M 189.644531 116.234375"/></g><g fill="#FFF"><use x="34.344" y="285.381" xmlns:xlink="http://www.w3.org/1999/xlink" xlink:href="#b" xlink:type="simple" xlink:actuate="onLoad" xlink:show="embed"/></g><g fill="#FFF"><use x="77.203" y="285.381" xmlns:xlink="http://www.w3.org/1999/xlink" xlink:href="#c" xlink:type="simple" xlink:actuate="onLoad" xlink:show="embed"/></g><g fill="#FFF"><use x="117.762" y="285.381" xmlns:xlink="http://www.w3.org/1999/xlink" xlink:href="#d" xlink:type="simple" xlink:actuate="onLoad" xlink:show="embed"/></g><g fill="#FFF"><use x="164.04" y="285.381" xmlns:xlink="http://www.w3.org/1999/xlink" xlink:href="#e" xlink:type="simple" xlink:actuate="onLoad" xlink:show="embed"/></g><g fill="#FFF"><use x="208.872" y="285.381" xmlns:xlink="http://www.w3.org/1999/xlink" xlink:href="#c" xlink:type="simple" xlink:actuate="onLoad" xlink:show="embed"/></g><g fill="#FFF"><use x="249.431" y="285.381" xmlns:xlink="http://www.w3.org/1999/xlink" xlink:href="#f" xlink:type="simple" xlink:actuate="onLoad" xlink:show="embed"/></g><g fill="#FFF"><use x="296.695" y="285.381" xmlns:xlink="http://www.w3.org/1999/xlink" xlink:href="#g" xlink:type="simple" xlink:actuate="onLoad" xlink:show="embed"/></g><g fill="#FFF"><use x="79.51" y="348.551" xmlns:xlink="http://www.w3.org/1999/xlink" xlink:href="#b" xlink:type="simple" xlink:actuate="onLoad" xlink:show="embed"/></g><g fill="#FFF"><use x="122.37" y="348.551" xmlns:xlink="http://www.w3.org/1999/xlink" xlink:href="#c" xlink:type="simple" xlink:actuate="onLoad" xlink:show="embed"/></g><g fill="#FFF"><use x="162.929" y="348.551" xmlns:xlink="http://www.w3.org/1999/xlink" xlink:href="#h" xlink:type="simple" xlink:actuate="onLoad" xlink:show="embed"/></g><g fill="#FFF"><use x="209.141" y="348.551" xmlns:xlink="http://www.w3.org/1999/xlink" xlink:href="#e" xlink:type="simple" xlink:actuate="onLoad" xlink:show="embed"/></g><g fill="#FFF"><use x="253.973" y="348.551" xmlns:xlink="http://www.w3.org/1999/xlink" xlink:href="#i" xlink:type="simple" xlink:actuate="onLoad" xlink:show="embed"/></g></svg>